<?xml version="1.0" standalone="no"?>
<!DOCTYPE svg PUBLIC "-//W3C//DTD SVG 1.1//EN" "http://www.w3.org/Graphics/SVG/1.1/DTD/svg11.dtd">
<svg xmlns="http://www.w3.org/2000/svg" xmlns:xlink="http://www.w3.org/1999/xlink" width="375" zoomAndPan="magnify" viewBox="0 0 375 374.999991" height="375" preserveAspectRatio="xMidYMid meet" version="1.2"><defs><clipPath id="fdae4a4fc9"><path d="M 135.148438 103.757812 L 282.148438 103.757812 L 282.148438 265 L 135.148438 265 Z M 135.148438 103.757812 "/></clipPath><filter x="0%" y="0%" width="100%" filterUnits="objectBoundingBox" id="62c5f3a007" height="100%"><feColorMatrix values="0 0 0 0 1 0 0 0 0 1 0 0 0 0 1 0 0 0 1 0" type="matrix" in="SourceGraphic"/></filter><clipPath id="2892f90466"><path d="M 1 0.757812 L 185 0.757812 L 185 114.757812 L 1 114.757812 Z M 1 0.757812 "/></clipPath><clipPath id="451d4da260"><rect x="0" width="186" y="0" height="116"/></clipPath><clipPath id="b57b41f98a"><path d="M 0.671875 0.519531 L 65.878906 0.519531 L 65.878906 84.519531 L 0.671875 84.519531 Z M 0.671875 0.519531 "/></clipPath><clipPath id="2f9acdefe5"><rect x="0" width="66" y="0" height="85"/></clipPath><clipPath id="99e6c71602"><path d="M 117 214 L 126 214 L 126 222.40625 L 117 222.40625 Z M 117 214 "/></clipPath><clipPath id="c7fa375dfa"><path d="M 143 189 L 151.164062 189 L 151.164062 197 L 143 197 Z M 143 189 "/></clipPath><clipPath id="f05e380548"><path d="M 101.664062 198 L 110 198 L 110 207 L 101.664062 207 Z M 101.664062 198 "/></clipPath><clipPath id="0f41e789a8"><path d="M 127 172.90625 L 136 172.90625 L 136 181 L 127 181 Z M 127 172.90625 "/></clipPath><clipPath id="af236c9029"><path d="M 117 172.90625 L 134 172.90625 L 134 189 L 117 189 Z M 117 172.90625 "/></clipPath><clipPath id="46bd936031"><path d="M 135 190 L 151.164062 190 L 151.164062 207 L 135 207 Z M 135 190 "/></clipPath><clipPath id="48948a21c8"><path d="M 101.664062 189 L 118 189 L 118 205 L 101.664062 205 Z M 101.664062 189 "/></clipPath><clipPath id="2dbce4e8a6"><path d="M 119 206 L 136 206 L 136 222.40625 L 119 222.40625 Z M 119 206 "/></clipPath></defs><g id="af0ff089d3"><rect x="0" width="375" y="0" height="374.999991" style="fill:#ffffff;fill-opacity:1;stroke:none;"/><rect x="0" width="375" y="0" height="374.999991" style="fill:#8e9a8e;fill-opacity:1;stroke:none;"/><g clip-rule="nonzero" clip-path="url(#fdae4a4fc9)"><path style=" stroke:none;fill-rule:nonzero;fill:#748074;fill-opacity:1;" d="M 163.292969 163.019531 C 163.292969 163.019531 179.953125 153.332031 201.875 142.636719 C 223.796875 131.9375 243.566406 113.917969 250.890625 112.558594 C 258.210938 111.199219 275.878906 103.792969 275.878906 103.792969 L 282.148438 260.964844 C 282.148438 260.964844 242.515625 263.769531 222.699219 264.734375 C 202.882812 265.699219 177.894531 260 163.292969 259.078125 C 148.695312 258.15625 135.148438 257.191406 135.148438 257.191406 Z M 163.292969 163.019531 "/></g><g mask="url(#2640b13d1a)" transform="matrix(1,0,0,1,97,103)"><g clip-path="url(#451d4da260)"><g clip-rule="nonzero" clip-path="url(#2892f90466)"><path style=" stroke:none;fill-rule:nonzero;fill:#d58e75;fill-opacity:1;" d="M 72.800781 49.242188 C 114.101562 38.871094 125.429688 48.242188 134.433594 49.242188 C 143.441406 50.246094 147.171875 55.292969 152.492188 61.023438 C 162.269531 71.621094 167.09375 94.773438 169.414062 110.195312 C 178.78125 109.285156 184.96875 108.691406 184.96875 108.691406 L 182.011719 2.941406 L 167 0.757812 C 167 0.757812 136.9375 4.484375 116.695312 5.03125 C 96.453125 5.578125 5.9375 2.894531 5.9375 2.894531 L 1.074219 112.421875 L 13.21875 114.558594 L 17.675781 114.652344 C 23.90625 96.730469 41.054688 57.25 72.800781 49.242188 Z M 72.800781 49.242188 "/></g></g><mask id="2640b13d1a"><g filter="url(#62c5f3a007)"><rect x="0" width="375" y="0" height="374.999991" style="fill:#000000;fill-opacity:0.91;stroke:none;"/></g></mask></g><g mask="url(#0597b85682)" transform="matrix(1,0,0,1,93,165)"><g clip-path="url(#2f9acdefe5)"><g clip-rule="nonzero" clip-path="url(#b57b41f98a)"><path style=" stroke:none;fill-rule:nonzero;fill:#f5f1e9;fill-opacity:1;" d="M 65.792969 84.382812 L 31.726562 84.382812 L 31.726562 7.617188 L 38.15625 7.617188 L 32.484375 1.945312 L 1.664062 32.769531 L 1.664062 83.886719 L 0.671875 83.886719 L 0.671875 32.355469 L 32.484375 0.542969 L 39.558594 7.617188 L 63.765625 7.617188 L 63.765625 33.230469 L 39.148438 8.609375 L 32.71875 8.609375 L 32.71875 83.390625 L 64.800781 83.390625 L 64.800781 40.707031 L 65.792969 40.707031 Z M 40.554688 8.609375 L 62.777344 30.832031 L 62.777344 8.609375 Z M 40.554688 8.609375 "/></g></g><mask id="0597b85682"><g filter="url(#62c5f3a007)"><rect x="0" width="375" y="0" height="374.999991" style="fill:#000000;fill-opacity:0.38;stroke:none;"/></g></mask></g><path style=" stroke:none;fill-rule:nonzero;fill:#000000;fill-opacity:1;" d="M 113.378906 188.398438 L 117.152344 184.625 L 113.796875 181.269531 C 113.449219 180.921875 112.878906 180.921875 112.53125 181.269531 L 110.023438 183.777344 C 109.675781 184.125 109.675781 184.695312 110.023438 185.042969 Z M 113.378906 188.398438 "/><path style=" stroke:none;fill-rule:nonzero;fill:#000000;fill-opacity:1;" d="M 119.660156 194.683594 L 123.4375 190.90625 L 133.175781 200.644531 L 129.398438 204.421875 Z M 119.660156 194.683594 "/><path style=" stroke:none;fill-rule:nonzero;fill:#000000;fill-opacity:1;" d="M 139.464844 206.933594 L 135.6875 210.710938 L 139.027344 214.046875 C 139.375 214.394531 139.945312 214.394531 140.292969 214.046875 L 142.800781 211.539062 C 143.148438 211.191406 143.148438 210.621094 142.800781 210.273438 Z M 139.464844 206.933594 "/><g clip-rule="nonzero" clip-path="url(#99e6c71602)"><path style=" stroke:none;fill-rule:nonzero;fill:#000000;fill-opacity:1;" d="M 118.035156 218.285156 C 117.6875 218.632812 117.6875 219.203125 118.035156 219.550781 L 120.546875 222.0625 C 120.894531 222.40625 121.460938 222.40625 121.808594 222.0625 L 125.15625 218.722656 L 121.382812 214.949219 Z M 118.035156 218.285156 "/></g><path style=" stroke:none;fill-rule:nonzero;fill:#000000;fill-opacity:1;" d="M 127.683594 208.648438 L 137.417969 198.914062 L 141.195312 202.691406 L 131.460938 212.425781 Z M 127.683594 208.648438 "/><g clip-rule="nonzero" clip-path="url(#c7fa375dfa)"><path style=" stroke:none;fill-rule:nonzero;fill:#000000;fill-opacity:1;" d="M 150.816406 193.054688 C 151.164062 192.707031 151.164062 192.136719 150.816406 191.792969 L 148.304688 189.28125 C 147.957031 188.933594 147.386719 188.933594 147.039062 189.28125 L 143.703125 192.628906 L 147.476562 196.402344 Z M 150.816406 193.054688 "/></g><g clip-rule="nonzero" clip-path="url(#f05e380548)"><path style=" stroke:none;fill-rule:nonzero;fill:#000000;fill-opacity:1;" d="M 102.007812 202.261719 C 101.664062 202.609375 101.664062 203.179688 102.007812 203.523438 L 104.519531 206.035156 C 104.867188 206.382812 105.4375 206.382812 105.785156 206.035156 L 109.132812 202.695312 L 105.355469 198.921875 Z M 102.007812 202.261719 "/></g><path style=" stroke:none;fill-rule:nonzero;fill:#000000;fill-opacity:1;" d="M 111.65625 192.621094 L 121.386719 182.890625 L 125.164062 186.667969 L 115.433594 196.398438 Z M 111.65625 192.621094 "/><g clip-rule="nonzero" clip-path="url(#0f41e789a8)"><path style=" stroke:none;fill-rule:nonzero;fill:#000000;fill-opacity:1;" d="M 134.789062 177.03125 C 135.136719 176.683594 135.136719 176.113281 134.789062 175.765625 L 132.28125 173.253906 C 131.933594 172.90625 131.363281 172.90625 131.015625 173.253906 L 127.675781 176.601562 L 131.453125 180.378906 Z M 134.789062 177.03125 "/></g><g clip-rule="nonzero" clip-path="url(#af236c9029)"><path style=" stroke:none;fill-rule:nonzero;fill:#000000;fill-opacity:1;" d="M 129.394531 188.390625 L 133.167969 184.617188 L 121.808594 173.253906 C 121.460938 172.90625 120.894531 172.90625 120.546875 173.253906 L 118.035156 175.765625 C 117.6875 176.113281 117.6875 176.683594 118.035156 177.03125 Z M 129.394531 188.390625 "/></g><g clip-rule="nonzero" clip-path="url(#46bd936031)"><path style=" stroke:none;fill-rule:nonzero;fill:#000000;fill-opacity:1;" d="M 139.457031 190.902344 L 135.6875 194.683594 L 147.039062 206.035156 C 147.386719 206.382812 147.957031 206.382812 148.304688 206.035156 L 150.816406 203.523438 C 151.164062 203.179688 151.164062 202.609375 150.816406 202.261719 Z M 139.457031 190.902344 "/></g><g clip-rule="nonzero" clip-path="url(#48948a21c8)"><path style=" stroke:none;fill-rule:nonzero;fill:#000000;fill-opacity:1;" d="M 113.371094 204.414062 L 117.144531 200.640625 L 105.785156 189.28125 C 105.4375 188.933594 104.867188 188.933594 104.519531 189.28125 L 102.007812 191.792969 C 101.664062 192.136719 101.664062 192.707031 102.007812 193.054688 Z M 113.371094 204.414062 "/></g><g clip-rule="nonzero" clip-path="url(#2dbce4e8a6)"><path style=" stroke:none;fill-rule:nonzero;fill:#000000;fill-opacity:1;" d="M 123.4375 206.933594 L 119.664062 210.710938 L 131.015625 222.0625 C 131.363281 222.40625 131.933594 222.40625 132.28125 222.0625 L 134.789062 219.550781 C 135.136719 219.203125 135.136719 218.632812 134.789062 218.285156 Z M 123.4375 206.933594 "/></g><path style=" stroke:none;fill-rule:nonzero;fill:#000000;fill-opacity:1;" d="M 121.382812 198.921875 L 110.023438 210.273438 C 109.675781 210.621094 109.675781 211.191406 110.023438 211.539062 L 112.53125 214.046875 C 112.878906 214.394531 113.449219 214.394531 113.796875 214.046875 L 125.15625 202.695312 Z M 121.382812 198.921875 "/><path style=" stroke:none;fill-rule:nonzero;fill:#000000;fill-opacity:1;" d="M 131.453125 196.402344 L 142.800781 185.042969 C 143.148438 184.695312 143.148438 184.125 142.800781 183.777344 L 140.292969 181.269531 C 139.945312 180.921875 139.375 180.921875 139.027344 181.269531 L 127.675781 192.628906 Z M 131.453125 196.402344 "/><g style="fill:#f5f1e9;fill-opacity:1;"><g transform="translate(162.137804, 206.86497)"><path style="stroke:none" d="M 14.546875 -0.484375 L 14.796875 -0.484375 L 14.796875 0 L 7.859375 0 L 7.859375 -0.484375 L 8.109375 -0.484375 C 8.367188 -0.484375 8.59375 -0.582031 8.78125 -0.78125 C 8.976562 -0.976562 9.148438 -1.207031 9.296875 -1.46875 C 9.441406 -1.726562 9.546875 -2.007812 9.609375 -2.3125 C 9.679688 -2.625 9.71875 -2.910156 9.71875 -3.171875 L 9.71875 -30.40625 L 4.046875 -30.40625 C 3.523438 -30.40625 3.066406 -30.289062 2.671875 -30.0625 C 2.285156 -29.84375 1.960938 -29.5625 1.703125 -29.21875 C 1.441406 -28.875 1.242188 -28.5 1.109375 -28.09375 C 0.984375 -27.6875 0.921875 -27.285156 0.921875 -26.890625 L 0.4375 -26.890625 L 0.4375 -32.21875 L 22.359375 -32.21875 L 22.359375 -26.890625 L 21.875 -26.890625 C 21.875 -27.285156 21.804688 -27.6875 21.671875 -28.09375 C 21.546875 -28.5 21.351562 -28.875 21.09375 -29.21875 C 20.832031 -29.5625 20.503906 -29.84375 20.109375 -30.0625 C 19.722656 -30.289062 19.269531 -30.40625 18.75 -30.40625 L 12.984375 -30.40625 L 12.984375 -3.171875 C 12.984375 -2.910156 13.015625 -2.625 13.078125 -2.3125 C 13.140625 -2.007812 13.242188 -1.726562 13.390625 -1.46875 C 13.546875 -1.207031 13.710938 -0.976562 13.890625 -0.78125 C 14.066406 -0.582031 14.285156 -0.484375 14.546875 -0.484375 Z M 14.546875 -0.484375 "/></g></g><g style="fill:#f5f1e9;fill-opacity:1;"><g transform="translate(184.979506, 206.86497)"><path style="stroke:none" d="M 2.203125 -0.484375 L 2.4375 -0.484375 C 2.695312 -0.484375 2.925781 -0.570312 3.125 -0.75 C 3.320312 -0.9375 3.492188 -1.160156 3.640625 -1.421875 C 3.785156 -1.679688 3.894531 -1.957031 3.96875 -2.25 C 4.050781 -2.539062 4.09375 -2.816406 4.09375 -3.078125 L 4.09375 -29.1875 C 4.09375 -29.414062 4.050781 -29.675781 3.96875 -29.96875 C 3.894531 -30.257812 3.785156 -30.535156 3.640625 -30.796875 C 3.492188 -31.054688 3.320312 -31.273438 3.125 -31.453125 C 2.925781 -31.640625 2.695312 -31.734375 2.4375 -31.734375 L 2.203125 -31.734375 L 2.203125 -32.21875 L 20.984375 -32.21875 L 20.984375 -27.671875 L 20.5 -27.671875 C 20.4375 -28.421875 20.144531 -29.078125 19.625 -29.640625 C 19.101562 -30.210938 18.289062 -30.5 17.1875 -30.5 L 7.375 -30.5 L 7.375 -18.15625 L 15.46875 -18.15625 C 16.21875 -18.15625 16.84375 -18.382812 17.34375 -18.84375 C 17.851562 -19.300781 18.109375 -19.835938 18.109375 -20.453125 L 18.59375 -20.453125 L 18.59375 -14.34375 L 18.109375 -14.34375 C 18.109375 -14.9375 17.863281 -15.441406 17.375 -15.859375 C 16.882812 -16.285156 16.25 -16.5 15.46875 -16.5 L 7.375 -16.5 L 7.375 -1.703125 L 18.0625 -1.703125 C 18.675781 -1.703125 19.210938 -1.847656 19.671875 -2.140625 C 20.128906 -2.441406 20.507812 -2.796875 20.8125 -3.203125 C 21.125 -3.609375 21.351562 -4.046875 21.5 -4.515625 C 21.644531 -4.984375 21.71875 -5.382812 21.71875 -5.71875 L 22.203125 -5.71875 L 22.203125 0 L 2.203125 0 Z M 2.203125 -0.484375 "/></g></g><g style="fill:#f5f1e9;fill-opacity:1;"><g transform="translate(208.650923, 206.86497)"><path style="stroke:none" d="M 2.203125 -0.484375 L 2.4375 -0.484375 C 2.695312 -0.484375 2.925781 -0.570312 3.125 -0.75 C 3.320312 -0.9375 3.492188 -1.160156 3.640625 -1.421875 C 3.785156 -1.679688 3.894531 -1.957031 3.96875 -2.25 C 4.050781 -2.539062 4.09375 -2.816406 4.09375 -3.078125 L 4.09375 -29.1875 C 4.09375 -29.414062 4.050781 -29.675781 3.96875 -29.96875 C 3.894531 -30.257812 3.785156 -30.535156 3.640625 -30.796875 C 3.492188 -31.054688 3.320312 -31.273438 3.125 -31.453125 C 2.925781 -31.640625 2.695312 -31.734375 2.4375 -31.734375 L 2.203125 -31.734375 L 2.203125 -32.21875 L 9.21875 -32.21875 L 9.21875 -31.734375 L 8.984375 -31.734375 C 8.722656 -31.734375 8.492188 -31.640625 8.296875 -31.453125 C 8.097656 -31.273438 7.929688 -31.054688 7.796875 -30.796875 C 7.671875 -30.535156 7.566406 -30.257812 7.484375 -29.96875 C 7.410156 -29.675781 7.375 -29.414062 7.375 -29.1875 L 7.375 -1.8125 L 18.0625 -1.8125 C 18.675781 -1.8125 19.210938 -1.957031 19.671875 -2.25 C 20.128906 -2.539062 20.507812 -2.90625 20.8125 -3.34375 C 21.125 -3.78125 21.351562 -4.25 21.5 -4.75 C 21.644531 -5.257812 21.71875 -5.726562 21.71875 -6.15625 L 22.203125 -6.15625 L 22.203125 0 L 2.203125 0 Z M 2.203125 -0.484375 "/></g></g><g style="fill:#f5f1e9;fill-opacity:1;"><g transform="translate(231.346198, 206.86497)"><path style="stroke:none" d="M 20.84375 -0.484375 L 21.09375 -0.484375 C 21.875 -0.484375 22.265625 -0.84375 22.265625 -1.5625 C 22.265625 -1.820312 22.210938 -2.097656 22.109375 -2.390625 L 17.71875 -14.25 L 9.171875 -14.25 L 4.9375 -2.59375 C 4.832031 -2.332031 4.78125 -2.085938 4.78125 -1.859375 C 4.78125 -1.429688 4.894531 -1.09375 5.125 -0.84375 C 5.351562 -0.601562 5.597656 -0.484375 5.859375 -0.484375 L 6.09375 -0.484375 L 6.09375 0 L 0.6875 0 L 0.6875 -0.484375 L 0.921875 -0.484375 C 1.347656 -0.484375 1.765625 -0.734375 2.171875 -1.234375 C 2.578125 -1.742188 2.910156 -2.34375 3.171875 -3.03125 L 14.34375 -32.796875 L 25.28125 -3.3125 C 25.507812 -2.664062 25.828125 -2.03125 26.234375 -1.40625 C 26.640625 -0.789062 27.171875 -0.484375 27.828125 -0.484375 L 28.0625 -0.484375 L 28.0625 0 L 20.84375 0 Z M 9.671875 -15.90625 L 17.1875 -15.90625 L 13.421875 -26.109375 Z M 9.671875 -15.90625 "/></g></g><g style="fill:#f5f1e9;fill-opacity:1;"><g transform="translate(177.361226, 239.141117)"><path style="stroke:none" d="M 13.640625 -0.3125 L 13.796875 -0.3125 C 13.929688 -0.3125 14.0625 -0.363281 14.1875 -0.46875 C 14.3125 -0.582031 14.421875 -0.726562 14.515625 -0.90625 C 14.609375 -1.082031 14.675781 -1.265625 14.71875 -1.453125 C 14.757812 -1.648438 14.78125 -1.832031 14.78125 -2 L 14.78125 -10.359375 L 4.953125 -10.359375 L 4.953125 -2 C 4.953125 -1.832031 4.96875 -1.648438 5 -1.453125 C 5.039062 -1.265625 5.101562 -1.085938 5.1875 -0.921875 C 5.269531 -0.753906 5.367188 -0.609375 5.484375 -0.484375 C 5.597656 -0.367188 5.734375 -0.3125 5.890625 -0.3125 L 6.046875 -0.3125 L 6.046875 0 L 1.75 0 L 1.75 -0.3125 L 1.90625 -0.3125 C 2.050781 -0.3125 2.179688 -0.363281 2.296875 -0.46875 C 2.421875 -0.582031 2.53125 -0.726562 2.625 -0.90625 C 2.71875 -1.082031 2.785156 -1.265625 2.828125 -1.453125 C 2.867188 -1.648438 2.890625 -1.832031 2.890625 -2 L 2.890625 -18.375 C 2.890625 -18.507812 2.867188 -18.671875 2.828125 -18.859375 C 2.785156 -19.046875 2.722656 -19.21875 2.640625 -19.375 C 2.554688 -19.539062 2.453125 -19.679688 2.328125 -19.796875 C 2.210938 -19.910156 2.070312 -19.96875 1.90625 -19.96875 L 1.75 -19.96875 L 1.75 -20.28125 L 6.046875 -20.28125 L 6.046875 -19.96875 L 5.890625 -19.96875 C 5.734375 -19.96875 5.59375 -19.910156 5.46875 -19.796875 C 5.34375 -19.679688 5.242188 -19.539062 5.171875 -19.375 C 5.097656 -19.21875 5.039062 -19.046875 5 -18.859375 C 4.96875 -18.671875 4.953125 -18.507812 4.953125 -18.375 L 4.953125 -11.421875 L 14.78125 -11.421875 L 14.78125 -18.375 C 14.78125 -18.507812 14.757812 -18.671875 14.71875 -18.859375 C 14.675781 -19.046875 14.613281 -19.21875 14.53125 -19.375 C 14.445312 -19.539062 14.34375 -19.679688 14.21875 -19.796875 C 14.09375 -19.910156 13.953125 -19.96875 13.796875 -19.96875 L 13.640625 -19.96875 L 13.640625 -20.28125 L 17.9375 -20.28125 L 17.9375 -19.96875 L 17.78125 -19.96875 C 17.625 -19.96875 17.484375 -19.910156 17.359375 -19.796875 C 17.234375 -19.679688 17.132812 -19.539062 17.0625 -19.375 C 16.988281 -19.21875 16.929688 -19.046875 16.890625 -18.859375 C 16.847656 -18.671875 16.828125 -18.507812 16.828125 -18.375 L 16.828125 -2 C 16.828125 -1.832031 16.851562 -1.648438 16.90625 -1.453125 C 16.957031 -1.265625 17.023438 -1.085938 17.109375 -0.921875 C 17.191406 -0.753906 17.289062 -0.609375 17.40625 -0.484375 C 17.519531 -0.367188 17.644531 -0.3125 17.78125 -0.3125 L 17.9375 -0.3125 L 17.9375 0 L 13.640625 0 Z M 13.640625 -0.3125 "/></g></g><g style="fill:#f5f1e9;fill-opacity:1;"><g transform="translate(196.465046, 239.141117)"><path style="stroke:none" d="M 11.734375 -20.578125 C 13.328125 -20.578125 14.757812 -20.296875 16.03125 -19.734375 C 17.300781 -19.171875 18.378906 -18.410156 19.265625 -17.453125 C 20.160156 -16.503906 20.847656 -15.398438 21.328125 -14.140625 C 21.816406 -12.878906 22.0625 -11.566406 22.0625 -10.203125 C 22.0625 -8.660156 21.773438 -7.242188 21.203125 -5.953125 C 20.640625 -4.671875 19.867188 -3.566406 18.890625 -2.640625 C 17.910156 -1.722656 16.769531 -1 15.46875 -0.46875 C 14.164062 0.0507812 12.773438 0.3125 11.296875 0.3125 C 9.722656 0.3125 8.304688 0.0234375 7.046875 -0.546875 C 5.785156 -1.117188 4.71875 -1.875 3.84375 -2.8125 C 2.976562 -3.757812 2.3125 -4.847656 1.84375 -6.078125 C 1.375 -7.304688 1.140625 -8.585938 1.140625 -9.921875 C 1.140625 -11.234375 1.375 -12.53125 1.84375 -13.8125 C 2.3125 -15.09375 3 -16.234375 3.90625 -17.234375 C 4.820312 -18.234375 5.9375 -19.039062 7.25 -19.65625 C 8.5625 -20.269531 10.054688 -20.578125 11.734375 -20.578125 Z M 11.703125 -0.765625 C 13.078125 -0.828125 14.28125 -1.140625 15.3125 -1.703125 C 16.34375 -2.265625 17.207031 -2.976562 17.90625 -3.84375 C 18.601562 -4.71875 19.117188 -5.675781 19.453125 -6.71875 C 19.796875 -7.769531 19.96875 -8.804688 19.96875 -9.828125 C 19.96875 -10.953125 19.757812 -12.085938 19.34375 -13.234375 C 18.9375 -14.378906 18.351562 -15.414062 17.59375 -16.34375 C 16.84375 -17.28125 15.9375 -18.039062 14.875 -18.625 C 13.820312 -19.207031 12.640625 -19.5 11.328125 -19.5 C 10.066406 -19.5 8.929688 -19.21875 7.921875 -18.65625 C 6.921875 -18.09375 6.066406 -17.367188 5.359375 -16.484375 C 4.648438 -15.609375 4.109375 -14.628906 3.734375 -13.546875 C 3.367188 -12.460938 3.1875 -11.398438 3.1875 -10.359375 C 3.1875 -9.222656 3.398438 -8.085938 3.828125 -6.953125 C 4.265625 -5.816406 4.863281 -4.785156 5.625 -3.859375 C 6.382812 -2.941406 7.28125 -2.195312 8.3125 -1.625 C 9.34375 -1.050781 10.472656 -0.765625 11.703125 -0.765625 Z M 11.703125 -0.765625 "/></g></g><g style="fill:#f5f1e9;fill-opacity:1;"><g transform="translate(219.838045, 239.141117)"><path style="stroke:none" d="M 17.90625 -0.3125 L 18.0625 -0.3125 C 18.207031 -0.3125 18.335938 -0.367188 18.453125 -0.484375 C 18.578125 -0.609375 18.6875 -0.753906 18.78125 -0.921875 C 18.875 -1.085938 18.941406 -1.265625 18.984375 -1.453125 C 19.023438 -1.648438 19.046875 -1.832031 19.046875 -2 L 19.046875 -18.15625 L 11.125 0.34375 L 3.59375 -17.203125 L 3.59375 -2 C 3.59375 -1.832031 3.613281 -1.648438 3.65625 -1.453125 C 3.695312 -1.265625 3.765625 -1.085938 3.859375 -0.921875 C 3.953125 -0.753906 4.054688 -0.609375 4.171875 -0.484375 C 4.296875 -0.367188 4.441406 -0.3125 4.609375 -0.3125 L 4.765625 -0.3125 L 4.765625 0 L 1.40625 0 L 1.40625 -0.3125 L 1.5625 -0.3125 C 1.707031 -0.3125 1.84375 -0.367188 1.96875 -0.484375 C 2.09375 -0.609375 2.191406 -0.753906 2.265625 -0.921875 C 2.347656 -1.085938 2.410156 -1.265625 2.453125 -1.453125 C 2.492188 -1.648438 2.515625 -1.832031 2.515625 -2 L 2.515625 -18.375 C 2.515625 -18.507812 2.492188 -18.671875 2.453125 -18.859375 C 2.410156 -19.046875 2.347656 -19.21875 2.265625 -19.375 C 2.191406 -19.539062 2.09375 -19.679688 1.96875 -19.796875 C 1.84375 -19.910156 1.707031 -19.96875 1.5625 -19.96875 L 1.40625 -19.96875 L 1.40625 -20.28125 L 4.546875 -20.28125 L 11.671875 -3.46875 L 18.796875 -20.28125 L 22.265625 -20.28125 L 22.265625 -19.96875 L 22.125 -19.96875 C 21.957031 -19.96875 21.8125 -19.910156 21.6875 -19.796875 C 21.5625 -19.679688 21.453125 -19.539062 21.359375 -19.375 C 21.273438 -19.21875 21.210938 -19.046875 21.171875 -18.859375 C 21.128906 -18.671875 21.109375 -18.507812 21.109375 -18.375 L 21.109375 -2 C 21.109375 -1.832031 21.128906 -1.648438 21.171875 -1.453125 C 21.210938 -1.265625 21.273438 -1.085938 21.359375 -0.921875 C 21.453125 -0.753906 21.5625 -0.609375 21.6875 -0.484375 C 21.8125 -0.367188 21.957031 -0.3125 22.125 -0.3125 L 22.265625 -0.3125 L 22.265625 0 L 17.90625 0 Z M 17.90625 -0.3125 "/></g></g><g style="fill:#f5f1e9;fill-opacity:1;"><g transform="translate(243.702456, 239.141117)"><path style="stroke:none" d="M 1.375 -0.3125 L 1.53125 -0.3125 C 1.695312 -0.3125 1.84375 -0.363281 1.96875 -0.46875 C 2.09375 -0.582031 2.195312 -0.722656 2.28125 -0.890625 C 2.375 -1.054688 2.445312 -1.226562 2.5 -1.40625 C 2.550781 -1.59375 2.578125 -1.769531 2.578125 -1.9375 L 2.578125 -18.375 C 2.578125 -18.507812 2.550781 -18.671875 2.5 -18.859375 C 2.445312 -19.046875 2.375 -19.21875 2.28125 -19.375 C 2.195312 -19.539062 2.09375 -19.679688 1.96875 -19.796875 C 1.84375 -19.910156 1.695312 -19.96875 1.53125 -19.96875 L 1.375 -19.96875 L 1.375 -20.28125 L 13.203125 -20.28125 L 13.203125 -17.421875 L 12.90625 -17.421875 C 12.863281 -17.890625 12.675781 -18.300781 12.34375 -18.65625 C 12.019531 -19.019531 11.507812 -19.203125 10.8125 -19.203125 L 4.640625 -19.203125 L 4.640625 -11.421875 L 9.734375 -11.421875 C 10.203125 -11.421875 10.59375 -11.5625 10.90625 -11.84375 C 11.226562 -12.132812 11.390625 -12.476562 11.390625 -12.875 L 11.703125 -12.875 L 11.703125 -9.03125 L 11.390625 -9.03125 C 11.390625 -9.394531 11.234375 -9.710938 10.921875 -9.984375 C 10.617188 -10.253906 10.222656 -10.390625 9.734375 -10.390625 L 4.640625 -10.390625 L 4.640625 -1.078125 L 11.359375 -1.078125 C 11.753906 -1.078125 12.09375 -1.164062 12.375 -1.34375 C 12.664062 -1.53125 12.90625 -1.75 13.09375 -2 C 13.289062 -2.257812 13.4375 -2.535156 13.53125 -2.828125 C 13.625 -3.128906 13.671875 -3.382812 13.671875 -3.59375 L 13.984375 -3.59375 L 13.984375 0 L 1.375 0 Z M 1.375 -0.3125 "/></g></g></g></svg>